<?xml version="1.0" encoding="utf-8"?>
<!-- Generator: Adobe Illustrator 23.0.1, SVG Export Plug-In . SVG Version: 6.00 Build 0)  -->
<svg version="1.1" id="Layer_1" xmlns="http://www.w3.org/2000/svg" xmlns:xlink="http://www.w3.org/1999/xlink" x="0px" y="0px"
	 viewBox="0 0 165 91.3" enable-background="new 0 0 165 91.3" xml:space="preserve">
<g>
	<g>
		<g>
			<path fill="#041E42" d="M73.7,51.8c-1.3,1.1-3.1,1.7-5.3,1.7c-2.3,0-4.1-0.6-5.4-1.7c-1.3-1.1-1.9-2.8-1.9-5.2V36h3.8v10.6
				c0,0.5,0,0.9,0.1,1.4c0.1,0.4,0.2,0.8,0.5,1.2c0.3,0.3,0.6,0.6,1.1,0.8c0.5,0.2,1.1,0.3,1.8,0.3c1.3,0,2.3-0.3,2.8-0.9
				c0.5-0.6,0.8-1.5,0.8-2.8V36h3.7v10.6C75.7,48.9,75,50.7,73.7,51.8z"/>
			<path fill="#041E42" d="M80.7,36v17h-3.4V36H80.7z"/>
			<path fill="#041E42" d="M85.6,50c0.1,0.3,0.3,0.5,0.6,0.6c0.2,0.2,0.5,0.3,0.8,0.4c0.3,0.1,0.6,0.1,1,0.1c0.2,0,0.5,0,0.8-0.1
				c0.3-0.1,0.5-0.1,0.7-0.3c0.2-0.1,0.4-0.3,0.5-0.5c0.1-0.2,0.2-0.4,0.2-0.8c0-0.5-0.3-0.9-1-1.1c-0.7-0.3-1.6-0.5-2.8-0.8
				c-0.5-0.1-1-0.2-1.4-0.4c-0.5-0.1-0.9-0.3-1.3-0.6c-0.4-0.2-0.7-0.6-0.9-0.9c-0.2-0.4-0.3-0.8-0.3-1.4c0-0.8,0.2-1.4,0.5-2
				c0.3-0.5,0.7-0.9,1.2-1.2c0.5-0.3,1.1-0.5,1.7-0.6c0.6-0.1,1.3-0.2,2-0.2c0.7,0,1.3,0.1,1.9,0.2c0.6,0.1,1.2,0.3,1.7,0.6
				c0.5,0.3,0.9,0.7,1.2,1.2c0.3,0.5,0.5,1.1,0.6,1.9H90c0-0.7-0.3-1.1-0.7-1.3c-0.4-0.2-1-0.3-1.6-0.3c-0.2,0-0.4,0-0.6,0
				c-0.2,0-0.4,0.1-0.6,0.2c-0.2,0.1-0.3,0.2-0.5,0.3c-0.1,0.2-0.2,0.4-0.2,0.6c0,0.3,0.1,0.5,0.3,0.7c0.2,0.2,0.5,0.3,0.9,0.5
				c0.4,0.1,0.8,0.2,1.2,0.3c0.5,0.1,0.9,0.2,1.4,0.3c0.5,0.1,1,0.2,1.4,0.4c0.5,0.2,0.9,0.4,1.3,0.6c0.4,0.3,0.7,0.6,0.9,1
				c0.2,0.4,0.3,0.9,0.3,1.4c0,0.8-0.2,1.5-0.5,2c-0.3,0.6-0.8,1-1.3,1.3c-0.5,0.3-1.1,0.6-1.8,0.7c-0.7,0.1-1.4,0.2-2.1,0.2
				c-0.7,0-1.4-0.1-2.1-0.2c-0.7-0.1-1.3-0.4-1.8-0.7c-0.5-0.3-1-0.8-1.3-1.3c-0.3-0.5-0.5-1.2-0.6-2.1h3.2
				C85.3,49.4,85.4,49.8,85.6,50z"/>
			<path fill="#041E42" d="M94.7,37H98v3.7h2.5V43H98v6.1c0,0.6,0.1,1,0.3,1.1c0.2,0.2,0.6,0.3,1.1,0.3c0.2,0,0.4,0,0.5,0
				c0.2,0,0.3,0,0.5-0.1v2.6c-0.3,0-0.6,0.1-1,0.1c-0.3,0-0.7,0-1,0c-0.5,0-1,0-1.5-0.1c-0.5-0.1-0.9-0.2-1.2-0.4
				c-0.4-0.2-0.6-0.5-0.8-0.9c-0.2-0.4-0.3-0.9-0.3-1.5L94.7,37L94.7,37z"/>
			<path fill="#041E42" d="M105,50.1c0.5,0.5,1.2,0.7,2.2,0.7c0.7,0,1.3-0.2,1.8-0.5c0.5-0.3,0.8-0.7,0.9-1.1h3
				c-0.5,1.5-1.2,2.5-2.2,3.2c-1,0.6-2.2,1-3.6,1c-1,0-1.8-0.2-2.6-0.5c-0.8-0.3-1.4-0.8-2-1.3c-0.5-0.6-1-1.3-1.3-2.1
				c-0.3-0.8-0.4-1.7-0.4-2.6c0-0.9,0.2-1.8,0.5-2.6c0.3-0.8,0.7-1.5,1.3-2.1c0.6-0.6,1.2-1,2-1.4c0.8-0.3,1.6-0.5,2.6-0.5
				c1,0,2,0.2,2.7,0.6c0.8,0.4,1.4,0.9,1.9,1.6c0.5,0.7,0.9,1.5,1.1,2.3c0.2,0.9,0.3,1.8,0.2,2.7h-8.9
				C104.2,48.8,104.5,49.6,105,50.1z M108.8,43.6c-0.4-0.4-1-0.7-1.8-0.7c-0.5,0-1,0.1-1.3,0.3c-0.4,0.2-0.6,0.4-0.9,0.7
				c-0.2,0.3-0.4,0.6-0.5,0.9c-0.1,0.3-0.1,0.6-0.2,0.8h5.5C109.5,44.7,109.2,44.1,108.8,43.6z"/>
			<path fill="#041E42" d="M117.4,40.7V43h0c0.2-0.4,0.4-0.7,0.6-1.1c0.3-0.3,0.6-0.6,0.9-0.8c0.4-0.2,0.7-0.4,1.1-0.5
				c0.4-0.1,0.8-0.2,1.2-0.2c0.2,0,0.5,0,0.7,0.1v3.2c-0.2,0-0.3-0.1-0.6-0.1c-0.2,0-0.4,0-0.6,0c-0.6,0-1.1,0.1-1.6,0.3
				c-0.4,0.2-0.8,0.5-1,0.8c-0.3,0.4-0.4,0.8-0.6,1.3c-0.1,0.5-0.2,1-0.2,1.6v5.6h-3.4V40.7L117.4,40.7L117.4,40.7z"/>
		</g>
		<g>
			<path fill="#041E42" d="M73.7,71c-1.3,1.1-3.1,1.7-5.3,1.7c-2.3,0-4.1-0.6-5.4-1.7c-1.3-1.1-1.9-2.8-1.9-5.2V55.3h3.8v10.6
				c0,0.5,0,0.9,0.1,1.4c0.1,0.4,0.2,0.8,0.5,1.2c0.3,0.3,0.6,0.6,1.1,0.8c0.5,0.2,1.1,0.3,1.8,0.3c1.3,0,2.3-0.3,2.8-0.9
				c0.5-0.6,0.8-1.5,0.8-2.8V55.3h3.7v10.6C75.7,68.2,75,69.9,73.7,71z"/>
			<path fill="#041E42" d="M80.5,60v1.7h0.1c0.4-0.7,1-1.2,1.7-1.6c0.7-0.3,1.4-0.5,2.1-0.5c0.9,0,1.7,0.1,2.2,0.4
				c0.6,0.2,1,0.6,1.4,1c0.3,0.4,0.6,1,0.7,1.6c0.1,0.6,0.2,1.3,0.2,2.1v7.6h-3.4v-7c0-1-0.2-1.8-0.5-2.3c-0.3-0.5-0.9-0.8-1.7-0.8
				c-0.9,0-1.6,0.3-2,0.8c-0.4,0.5-0.6,1.4-0.6,2.7v6.5h-3.4V60L80.5,60L80.5,60z"/>
			<path fill="#041E42" d="M90.5,58.1v-2.8h3.4v2.8H90.5z M93.9,60v12.3h-3.4V60H93.9z"/>
			<path fill="#041E42" d="M98.9,72.3L94.7,60h3.6l2.6,8.4h0l2.6-8.4h3.4l-4.2,12.3H98.9z"/>
			<path fill="#041E42" d="M110.5,69.4c0.5,0.5,1.2,0.7,2.2,0.7c0.7,0,1.3-0.2,1.8-0.5c0.5-0.3,0.8-0.7,0.9-1.1h3
				c-0.5,1.5-1.2,2.5-2.2,3.2c-1,0.6-2.2,1-3.6,1c-1,0-1.8-0.2-2.6-0.5c-0.8-0.3-1.4-0.8-2-1.3c-0.5-0.6-1-1.3-1.3-2
				c-0.3-0.8-0.4-1.7-0.4-2.6c0-0.9,0.1-1.8,0.5-2.6c0.3-0.8,0.7-1.5,1.3-2.1c0.6-0.6,1.2-1,2-1.4c0.8-0.3,1.6-0.5,2.6-0.5
				c1,0,2,0.2,2.7,0.6c0.8,0.4,1.4,0.9,1.9,1.6c0.5,0.7,0.9,1.5,1.1,2.3c0.2,0.9,0.3,1.8,0.2,2.7h-8.9
				C109.7,68.1,110,68.9,110.5,69.4z M114.3,62.9c-0.4-0.4-1-0.7-1.9-0.7c-0.5,0-1,0.1-1.3,0.3c-0.4,0.2-0.6,0.4-0.9,0.7
				c-0.2,0.3-0.4,0.6-0.5,0.9c-0.1,0.3-0.1,0.6-0.2,0.8h5.5C115,64,114.7,63.3,114.3,62.9z"/>
			<path fill="#041E42" d="M122.6,60v2.3h0c0.2-0.4,0.4-0.7,0.6-1.1c0.3-0.3,0.6-0.6,0.9-0.8c0.4-0.2,0.7-0.4,1.1-0.5
				c0.4-0.1,0.8-0.2,1.2-0.2c0.2,0,0.5,0,0.7,0.1v3.2c-0.2,0-0.3-0.1-0.6-0.1c-0.2,0-0.4,0-0.6,0c-0.6,0-1.1,0.1-1.6,0.3
				c-0.4,0.2-0.8,0.5-1,0.8c-0.3,0.4-0.5,0.8-0.6,1.3c-0.1,0.5-0.2,1-0.2,1.6v5.6h-3.4V60L122.6,60L122.6,60z"/>
			<path fill="#041E42" d="M131.3,69.3c0.1,0.3,0.3,0.5,0.6,0.6c0.2,0.2,0.5,0.3,0.8,0.4c0.3,0.1,0.6,0.1,1,0.1c0.2,0,0.5,0,0.8-0.1
				c0.3-0.1,0.5-0.1,0.7-0.3c0.2-0.1,0.4-0.3,0.5-0.5c0.1-0.2,0.2-0.4,0.2-0.8c0-0.5-0.3-0.9-1-1.1c-0.7-0.3-1.6-0.5-2.8-0.8
				c-0.5-0.1-1-0.2-1.4-0.4c-0.5-0.1-0.9-0.3-1.3-0.6c-0.4-0.2-0.7-0.6-0.9-0.9c-0.2-0.4-0.3-0.8-0.3-1.4c0-0.8,0.2-1.4,0.5-2
				c0.3-0.5,0.7-0.9,1.2-1.2c0.5-0.3,1.1-0.5,1.7-0.6c0.6-0.1,1.3-0.2,2-0.2c0.7,0,1.3,0.1,1.9,0.2c0.6,0.1,1.2,0.3,1.7,0.6
				c0.5,0.3,0.9,0.7,1.2,1.2c0.3,0.5,0.5,1.1,0.6,1.9h-3.2c0-0.7-0.3-1.1-0.7-1.3c-0.4-0.2-1-0.3-1.6-0.3c-0.2,0-0.4,0-0.6,0
				c-0.2,0-0.4,0.1-0.6,0.2c-0.2,0.1-0.3,0.2-0.5,0.3c-0.1,0.2-0.2,0.4-0.2,0.6c0,0.3,0.1,0.6,0.3,0.7c0.2,0.2,0.5,0.3,0.9,0.5
				c0.4,0.1,0.8,0.2,1.2,0.3c0.5,0.1,0.9,0.2,1.4,0.3c0.5,0.1,1,0.2,1.4,0.4c0.5,0.2,0.9,0.4,1.3,0.6c0.4,0.3,0.7,0.6,0.9,1
				c0.2,0.4,0.3,0.9,0.3,1.4c0,0.8-0.2,1.5-0.5,2c-0.3,0.6-0.8,1-1.3,1.3c-0.5,0.3-1.1,0.6-1.8,0.7c-0.7,0.1-1.4,0.2-2.1,0.2
				c-0.7,0-1.4-0.1-2.1-0.2c-0.7-0.1-1.3-0.4-1.8-0.7c-0.5-0.3-1-0.8-1.3-1.3c-0.3-0.5-0.5-1.2-0.6-2.1h3.2
				C131.1,68.7,131.2,69,131.3,69.3z"/>
			<path fill="#041E42" d="M140.4,58.1v-2.8h3.4v2.8H140.4z M143.8,60v12.3h-3.4V60H143.8z"/>
			<path fill="#041E42" d="M145.4,56.3h3.4V60h2.5v2.3h-2.5v6.1c0,0.6,0.1,1,0.3,1.1c0.2,0.2,0.6,0.3,1.1,0.3c0.2,0,0.4,0,0.5,0
				c0.2,0,0.3,0,0.5-0.1v2.6c-0.3,0-0.6,0.1-1,0.1c-0.4,0-0.7,0-1,0c-0.5,0-1,0-1.5-0.1c-0.5-0.1-0.9-0.2-1.2-0.4
				c-0.4-0.2-0.6-0.5-0.8-0.9c-0.2-0.4-0.3-0.9-0.3-1.5L145.4,56.3L145.4,56.3z"/>
			<path fill="#041E42" d="M157.5,76c-0.7,0.4-1.6,0.6-2.7,0.6c-0.4,0-0.7,0-1,0c-0.3,0-0.7-0.1-1-0.1v-2.8c0.3,0,0.6,0.1,1,0.1
				c0.3,0,0.7,0,1,0c0.4,0,0.8-0.2,1-0.5c0.2-0.3,0.3-0.6,0.3-1c0-0.3,0-0.5-0.1-0.8L151.6,60h3.6l2.8,8.4h0l2.7-8.4h3.5l-5.2,13.9
				C158.7,74.9,158.2,75.6,157.5,76z"/>
		</g>
	</g>
	<g>
		<path fill="#041E42" d="M61.1,0.9h-7.5c0,0,8,0.9,13.1,11.3h7.5C69.1,1.8,61.1,0.9,61.1,0.9z"/>
		<path fill="#041E42" d="M74.3,12.2c1.9-4.4,3.4-9.8,11.1-11.3h-9.1c-1.9,0.3-3.5,1.1-4.8,1.9c-0.2,0.1-0.4,0.3-0.6,0.4
			C70.9,3.2,74.7,6.4,74.3,12.2z"/>
	</g>
	<path fill="#041E42" d="M32.7,18.4l0,53.8c0,4.3,1.3,7.8,3.7,10.1l0,0c2.9,2.5,8.9,4.2,14.7,4.2c3.8,0,7.3-0.5,10.2-1.5
		c2.7-0.9,4.9-2.3,6.6-4c0,0,0.1-0.1,0.2-0.1c0,0,0,0.2,0,0.2c-0.7,0.9-2.4,2.9-6.6,5.2c-5.7,3.2-11.4,4.6-19.3,4.6
		C28.5,90.8,15.9,86,10,78.5c-2.3-3-3.3-5.8-3.3-11.6l0-57.8c0-3.7-2.3-6.8-5.5-8.2c0,0,13.6,0,17.2,0C22.9,0.9,32.7,4.9,32.7,18.4z
		"/>
</g>
</svg>
